#!OML:ASF Y:\EmotionMaleHayes\Project 1\Capture day 1\Session 1\Male1.ASF
:FULLY-SPECIFIED
:DEGREES
1164
root 28.7051 17.0668 2.53832 349.23 111.917 357.367
lowerback -7.20607 -2.96299 -5.80369
upperback -1.61869 -3.46535 0.349872
thorax 2.72513 -1.74496 3.28074
lowerneck -25.0733 -1.01503 2.05234
upperneck 34.2147 -1.46341 -0.761184
head 16.5156 -0.155443 -0.916415
rclavicle 5.77966e-014 7.85199e-015
rhumerus 27.2513 19.4458 -44.4296
rradius 40.144
rwrist -0.734754
rhand -1.20967 -28.0709
rfingers 7.12502
rthumb 24.4312 -56.533
lclavicle 5.77966e-014 7.85199e-015
lhumerus 37.2869 -23.7479 43.4579
lradius 41.921
lwrist 2.1253
lhand -0.184676 -29.0539
lfingers 7.12502
lthumb 25.4135 -0.727855
rfemur 17.1608 -8.04447 14.4322
rtibia 5.81152
rfoot -17.7424 -5.78667
rtoes 12.9809
lfemur 23.2829 -7.09533 -6.27892
ltibia 31.6479
lfoot 13.6598 4.556
ltoes 7.56538
1165
root 28.7755 17.0692 2.55733 348.78 111.893 356.761
lowerback -7.15467 -2.94054 -5.79485
upperback -1.76435 -3.43655 0.264706
thorax 2.53661 -1.72026 3.19731
lowerneck -24.9742 -0.980406 2.19388
upperneck 34.2837 -1.42611 -0.856334
head 16.5251 -0.130902 -0.97373
rclavicle -1.14053e-014 1.38155e-014
rhumerus 27.2241 19.4036 -44.4631
rradius 40.0593
rwrist -0.649149
rhand -1.08624 -28.012
rfingers 7.12502
rthumb 24.5495 -56.4581
lclavicle -1.14053e-014 1.38155e-014
lhumerus 37.0864 -23.9122 43.3579
lradius 42.378
lwrist 2.52509
lhand 0.0973323 -28.8819
lfingers 7.12502
lthumb 25.6836 -0.594535
rfemur 17.2036 -7.98077 14.3689
rtibia 5.9028
rfoot -17.8725 -5.64261
rtoes 15.1727
lfemur 22.7158 -6.9432 -6.49113
ltibia 32.5382
lfoot 13.9526 5.15168
ltoes 8.19759
1166
root 28.8534 17.0738 2.57795 348.845 111.79 356.812
lowerback -7.08893 -3.07807 -5.71745
upperback -1.66403 -3.63748 0.451975
thorax 2.63162 -1.82742 3.327
lowerneck -25.7978 -0.813401 2.13082
upperneck 34.5617 -1.08907 -1.09001
head 16.868 -0.038598 -1.00634
rclavicle 1.41137e-014 -6.55989e-015
rhumerus 28.0726 19.6081 -44.0337
rradius 39.9769
rwrist -0.662374
rhand -0.888393 -27.7755
rfingers 7.12502
rthumb 24.7392 -56.1958
lclavicle 1.41137e-014 -6.55989e-015
lhumerus 36.4952 -23.6251 42.9688
lradius 43.8804
lwrist 3.51922
lhand 0.276205 -28.0911
lfingers 7.12502
lthumb 25.8549 0.17135
rfemur 17.4317 -7.76417 14.6976
rtibia 5.83348
rfoot -18.2768 -5.935
rtoes 12.9356
lfemur 22.2626 -6.67658 -6.27229
ltibia 33.3362
lfoot 14.0799 5.66312
ltoes 8.42259
1167
root 28.9275 17.0782 2.59811 348.59 111.659 356.485
lowerback -7.18422 -2.96573 -5.59315
upperback -1.81154 -3.48337 0.269077
thorax 2.49736 -1.74 3.08427
lowerneck -25.4755 -0.920593 2.32953
upperneck 34.6383 -1.3281 -1.06704
head 16.8229 -0.0963621 -1.07771
rclavicle -1.16041e-014 -1.73937e-014
rhumerus 27.6795 19.5367 -44.2639
rradius 39.937
rwrist -0.485765
rhand -0.762782 -27.6484
rfingers 7.12502
rthumb 24.8596 -56.0521
lclavicle -1.16041e-014 -1.73937e-014
lhumerus 36.4691 -23.6563 43.2396
lradius 43.684
lwrist 2.55897
lhand 0.853882 -28.3051
lfingers 7.12502
lthumb 26.408 -0.124472
rfemur 17.647 -7.40085 14.9351
rtibia 5.70037
rfoot -18.7027 -6.44452
rtoes 9.56062
lfemur 21.7488 -6.35 -6.17448
ltibia 34.0998
lfoot 13.5006 6.28007
ltoes 8.56423
1168
root 28.9915 17.0798 2.61735 348.462 111.53 356.217
lowerback -7.16602 -2.93678 -5.49012
upperback -1.88326 -3.45359 0.263468
thorax 2.40371 -1.72013 3.02708
lowerneck -25.3469 -0.804073 2.31633
upperneck 34.5612 -1.16886 -0.991947
head 16.7582 -0.0228884 -1.00591
rclavicle 2.18166e-014 -1.23246e-014
rhumerus 27.816 19.5039 -44.1981
rradius 39.9174
rwrist -0.345377
rhand -0.746755 -27.8425
rfingers 7.12502
rthumb 24.8749 -56.2441
lclavicle 2.18166e-014 -1.23246e-014
lhumerus 36.8933 -23.8248 42.5777
lradius 42.8847
lwrist 2.49214
lhand 0.966602 -28.587
lfingers 7.12502
lthumb 26.5159 -0.422536
rfemur 17.7286 -6.98641 15.2184
rtibia 5.54853
rfoot -18.6498 -6.73955
rtoes 9.89339
lfemur 21.135 -5.96799 -6.02821
ltibia 34.8865
lfoot 12.5342 6.61735
ltoes 8.35034
1169
root 29.058 17.0819 2.62816 348.804 111.47 356.443
lowerback -7.18226 -3.04381 -5.25829
upperback -1.75284 -3.62102 0.486331
thorax 2.5642 -1.81203 3.10607
lowerneck -26.6132 -0.899536 2.03034
upperneck 35.149 -1.07786 -1.35794
head 17.3686 -0.0769458 -1.12074
rclavicle 7.45443e-015 0
rhumerus 28.7277 19.6187 -43.5812
rradius 39.8972
rwrist -0.427297
rhand -0.537312 -27.8104
rfingers 7.12502
rthumb 25.0756 -56.1841
lclavicle 7.45443e-015 0
lhumerus 36.7716 -23.2681 42.4082
lradius 42.9497
lwrist 2.32734
lhand 1.33423 -28.5204
lfingers 7.12502
lthumb 26.8677 -0.409576
rfemur 17.7932 -7.12931 15.4057
rtibia 5.53377
rfoot -18.058 -6.31419
rtoes 13.1677
lfemur 20.5434 -5.5886 -5.69885
ltibia 35.6333
lfoot 11.8222 6.74698
ltoes 8.82517
1170
root 29.1293 17.0822 2.63405 348.602 111.442 356.163
lowerback -7.32033 -2.90514 -4.96631
upperback -1.93918 -3.44071 0.274444
thorax 2.40112 -1.70937 2.74173
lowerneck -25.3857 -0.850642 1.97977
upperneck 34.6642 -1.13001 -0.861728
head 16.8253 -0.0292108 -0.882059
rclavicle -4.07509e-015 -1.51076e-014
rhumerus 28.1575 19.5539 -43.7793
rradius 39.898
rwrist -0.310727
rhand -0.34627 -27.5448
rfingers 7.12502
rthumb 25.2587 -55.8928
lclavicle -4.07509e-015 -1.51076e-014
lhumerus 36.7444 -23.7043 42.4806
lradius 42.8692
lwrist 1.89082
lhand 1.66539 -28.6569
lfingers 7.12502
lthumb 27.1845 -0.595245
rfemur 17.992 -7.63412 15.1249
rtibia 5.58748
rfoot -18.5716 -6.03234
rtoes 7.36281
lfemur 20.0667 -5.23481 -5.66499
ltibia 36.2827
lfoot 11.101 6.86561
ltoes 9.74394
1171
root 29.1927 17.0802 2.64812 348.775 111.297 356.322
lowerback -7.24321 -2.93989 -4.70164
upperback -1.84692 -3.51619 0.37193
thorax 2.45088 -1.75077 2.68785
lowerneck -25.957 -0.746615 1.86222
upperneck 34.7934 -0.951448 -0.847117
head 17.034 0.0261896 -0.823348
rclavicle -3.78685e-014 -2.32578e-014
rhumerus 28.6496 19.4111 -43.7211
rradius 39.7364
rwrist -0.0772291
rhand -0.391979 -27.3802
rfingers 7.12502
rthumb 25.2149 -55.7343
lclavicle -3.78685e-014 -2.32578e-014
lhumerus 36.8361 -23.2015 42.5703
lradius 42.7912
lwrist 1.31691
lhand 1.9868 -28.6631
lfingers 7.12502
lthumb 27.492 -0.649878
rfemur 18.2161 -7.51142 15.3978
rtibia 5.42312
rfoot -18.8472 -6.09939
rtoes 5.74495
lfemur 19.5492 -4.8597 -5.36885
ltibia 36.8917
lfoot 10.3485 6.90753
ltoes 11.1079
1172
root 29.2562 17.0766 2.66282 349.516 111.104 357.107
lowerback -7.19316 -2.70799 -4.02836
upperback -2.06268 -3.25278 0.205107
thorax 2.13191 -1.60432 2.17509
lowerneck -25.205 -0.88637 2.13229
upperneck 34.6725 -1.25059 -0.841665
head 16.7827 -0.0507016 -0.922949
rclavicle 4.35835e-014 1.94809e-014
rhumerus 28.0915 19.4448 -43.8312
rradius 39.9139
rwrist -0.196922
rhand -0.32117 -27.6641
rfingers 7.12502
rthumb 25.2827 -56.0087
lclavicle 4.35835e-014 1.94809e-014
lhumerus 37.091 -24.222 41.608
lradius 43.4539
lwrist 1.57546
lhand 2.34716 -28.2639
lfingers 7.12502
lthumb 27.8366 -0.305997
rfemur 18.4764 -7.1439 16.1149
rtibia 5.16738
rfoot -18.9697 -6.34993
rtoes 6.34326
lfemur 19.0079 -4.4386 -4.74843
ltibia 37.4652
lfoot 9.95769 6.63813
ltoes 10.5949
1173
root 29.3277 17.0715 2.66917 349.246 111.025 356.864
lowerback -7.13105 -2.63538 -3.83743
upperback -2.14616 -3.16923 0.101653
thorax 1.98956 -1.55755 1.97509
lowerneck -24.9496 -0.92955 2.25479
upperneck 34.5794 -1.33996 -0.89719
head 16.6702 -0.079642 -0.98445
rclavicle -2.39536e-014 -1.68967e-014
rhumerus 27.8201 19.374 -43.9861
rradius 39.8798
rwrist -0.0395857
rhand -0.304889 -27.5032
rfingers 7.12502
rthumb 25.2983 -55.8455
lclavicle -2.39536e-014 -1.68967e-014
lhumerus 37.0199 -24.6371 41.0441
lradius 43.8708
lwrist 1.68365
lhand 2.74773 -28.0049
lfingers 7.12502
lthumb 28.2195 -0.109596
rfemur 18.8352 -7.31631 16.0303
rtibia 5.1209
rfoot -19.1458 -6.14895
rtoes 6.07724
lfemur 18.6071 -4.04423 -4.68852
ltibia 37.9107
lfoot 9.65075 6.3643
ltoes 7.88118
1174
root 29.3948 17.0664 2.67844 348.828 110.976 356.433
lowerback -7.00162 -2.6371 -3.84864
upperback -2.17778 -3.17757 0.10932
thorax 1.88659 -1.55972 1.99506
lowerneck -24.9619 -0.923848 2.36836
upperneck 34.5105 -1.2689 -1.20238
head 16.6344 -0.0867171 -1.1246
rclavicle 6.14245e-014 2.04748e-014
rhumerus 27.9717 19.5002 -43.7624
rradius 39.9183
rwrist -0.173051
rhand -0.00976057 -27.3212
rfingers 7.12502
rthumb 25.581 -55.6232
lclavicle 6.14245e-014 2.04748e-014
lhumerus 36.8648 -24.5824 40.9513
lradius 43.9631
lwrist 1.45536
lhand 3.13507 -27.9848
lfingers 7.12502
lthumb 28.5896 -0.151181
rfemur 19.0627 -7.55974 15.7981
rtibia 5.23811
rfoot -19.3624 -5.8379
rtoes 5.97599
lfemur 18.1478 -3.75347 -4.75486
ltibia 38.3479
lfoot 9.73912 7.00119
ltoes 9.48999
1175
root 29.4533 17.0605 2.69082 348.837 110.922 356.379
lowerback -6.89657 -2.6932 -3.80309
upperback -2.06491 -3.26726 0.266433
thorax 1.95716 -1.60967 2.12467
lowerneck -25.6561 -0.830094 2.10703
upperneck 34.617 -1.09739 -1.07449
head 16.8627 -0.0382415 -0.995448
rclavicle -6.54995e-014 7.7526e-015
rhumerus 28.6137 19.4946 -43.3327
rradius 39.9445
rwrist -0.284061
rhand 0.120132 -27.365
rfingers 7.12502
rthumb 25.7054 -55.6491
lclavicle -6.54995e-014 7.7526e-015
lhumerus 36.8564 -24.0624 41.0301
lradius 43.9226
lwrist 1.08635
lhand 3.31068 -28.0812
lfingers 7.12502
lthumb 28.7574 -0.275963
rfemur 19.1476 -7.64371 15.8512
rtibia 5.34781
rfoot -19.4108 -5.56179
rtoes 7.8556
lfemur 17.4989 -3.51057 -4.66171
ltibia 38.8964
lfoot 9.55767 7.78206
ltoes 11.8811
1176
root 29.5127 17.0529 2.70014 349.094 110.802 356.621
lowerback -6.73078 -2.5409 -3.35369
upperback -2.2418 -3.09755 0.145331
thorax 1.6416 -1.51566 1.7768
lowerneck -25.2416 -0.921209 2.04103
upperneck 34.5994 -1.32098 -0.7162
head 16.755 -0.0760973 -0.866667
rclavicle 1.32192e-014 -1.2921e-014
rhumerus 28.2697 19.4979 -43.4088
rradius 39.9972
rwrist -0.384111
rhand -0.38423 -27.7252
rfingers 7.12502
rthumb 25.2223 -56.0783
lclavicle 1.32192e-014 -1.2921e-014
lhumerus 36.9198 -24.4806 40.7816
lradius 44.0131
lwrist 0.925953
lhand 3.75298 -28.0283
lfingers 7.12502
lthumb 29.1798 -0.295586
rfemur 19.3045 -7.64571 16.085
rtibia 5.35105
rfoot -19.2524 -5.25383
rtoes 11.2046
lfemur 16.8715 -3.21059 -4.42506
ltibia 39.466
lfoot 9.31265 8.25717
ltoes 12.7279
1177
root 29.5734 17.0446 2.71101 349.418 110.621 357.017
lowerback -6.65896 -2.51863 -3.09578
upperback -2.16233 -3.09214 0.234981
thorax 1.67499 -1.51611 1.7265
lowerneck -25.5035 -0.745353 1.94928
upperneck 34.7356 -1.0572 -0.613056
head 16.8953 0.0377828 -0.750949
rclavicle -9.34288e-015 -1.92821e-014
rhumerus 28.4532 19.5477 -43.2062
rradius 40.1805
rwrist -0.597957
rhand -0.650648 -27.8434
rfingers 7.12502
rthumb 24.967 -56.2322
lclavicle -9.34288e-015 -1.92821e-014
lhumerus 36.9668 -24.2877 40.599
lradius 43.9581
lwrist 0.85886
lhand 4.76458 -27.9513
lfingers 7.12502
lthumb 30.1454 -0.390483
rfemur 19.596 -7.46259 16.4779
rtibia 5.19656
rfoot -19.1872 -5.21986
rtoes 12.8568
lfemur 16.317 -2.89132 -4.09036
ltibia 40.0439
lfoot 8.96845 8.68016
ltoes 13.4851
